<svg width="20" height="21" viewBox="0 0 20 21" fill="none" xmlns="http://www.w3.org/2000/svg">
<path d="M11.6667 2.1665V5.49984C11.6667 5.94186 11.8423 6.36579 12.1549 6.67835C12.4675 6.99091 12.8914 7.1665 13.3334 7.1665H16.6667" stroke="#509EE3" stroke-width="1.5" stroke-linecap="round" stroke-linejoin="round"/>
<path d="M2.66675 11.2498L1.91675 10.9165" stroke="#509EE3" stroke-width="1.5" stroke-linecap="round" stroke-linejoin="round"/>
<path d="M2.66675 13.0835L1.91675 13.4168" stroke="#509EE3" stroke-width="1.5" stroke-linecap="round" stroke-linejoin="round"/>
<path d="M3.89742 18.4165C4.19975 18.6831 4.58848 18.8312 4.99159 18.8332H14.9999C15.4419 18.8332 15.8659 18.6576 16.1784 18.345C16.491 18.0325 16.6666 17.6085 16.6666 17.1665V6.33317L12.4999 2.1665H4.99992C4.55789 2.1665 4.13397 2.3421 3.82141 2.65466C3.50885 2.96722 3.33325 3.39114 3.33325 3.83317V5.9165" stroke="#509EE3" stroke-width="1.5" stroke-linecap="round" stroke-linejoin="round"/>
<path d="M4.08333 9.8335L3.75 9.0835" stroke="#509EE3" stroke-width="1.5" stroke-linecap="round" stroke-linejoin="round"/>
<path d="M4.08333 14.5L3.75 15.25" stroke="#509EE3" stroke-width="1.5" stroke-linecap="round" stroke-linejoin="round"/>
<path d="M6.25008 9.0835L5.91675 9.8335" stroke="#509EE3" stroke-width="1.5" stroke-linecap="round" stroke-linejoin="round"/>
<path d="M6.25008 15.25L5.91675 14.5" stroke="#509EE3" stroke-width="1.5" stroke-linecap="round" stroke-linejoin="round"/>
<path d="M8.08325 10.9165L7.33325 11.2498" stroke="#509EE3" stroke-width="1.5" stroke-linecap="round" stroke-linejoin="round"/>
<path d="M8.08325 13.4168L7.33325 13.0835" stroke="#509EE3" stroke-width="1.5" stroke-linecap="round" stroke-linejoin="round"/>
<path d="M5 14.6665C6.38071 14.6665 7.5 13.5472 7.5 12.1665C7.5 10.7858 6.38071 9.6665 5 9.6665C3.61929 9.6665 2.5 10.7858 2.5 12.1665C2.5 13.5472 3.61929 14.6665 5 14.6665Z" stroke="#509EE3" stroke-width="1.5" stroke-linecap="round" stroke-linejoin="round"/>
</svg>
