<svg width="20" height="21" viewBox="0 0 20 21" fill="none" xmlns="http://www.w3.org/2000/svg">
<mask id="mask0_2434_4143" style="mask-type:alpha" maskUnits="userSpaceOnUse" x="0" y="0" width="20" height="21">
<rect y="0.5" width="20" height="20" fill="#509EE3"/>
</mask>
<g mask="url(#mask0_2434_4143)">
<path d="M9.07687 18.4168C8.7927 18.4168 8.54729 18.3225 8.34062 18.1339C8.13381 17.9454 8.00798 17.7134 7.96312 17.4377L7.75958 15.8783C7.53638 15.8036 7.3075 15.6989 7.07291 15.5643C6.83847 15.4296 6.62881 15.2854 6.44395 15.1316L4.99999 15.7454C4.73819 15.8608 4.47513 15.872 4.21083 15.7789C3.94638 15.686 3.74097 15.5172 3.59458 15.2727L2.65541 13.6443C2.50902 13.3997 2.46687 13.1409 2.52895 12.8679C2.5909 12.595 2.73298 12.3698 2.9552 12.1925L4.20354 11.255C4.18437 11.1311 4.17076 11.0066 4.1627 10.8816C4.15465 10.7566 4.15062 10.6321 4.15062 10.5081C4.15062 10.3896 4.15465 10.2692 4.1627 10.1468C4.17076 10.0245 4.18437 9.89065 4.20354 9.74537L2.9552 8.80787C2.73298 8.63051 2.59222 8.40398 2.53291 8.12829C2.47361 7.85273 2.51715 7.59259 2.66354 7.34787L3.59458 5.7437C3.74097 5.5044 3.94638 5.33697 4.21083 5.24141C4.47513 5.14572 4.73819 5.15558 4.99999 5.271L6.43583 5.87683C6.6368 5.71766 6.85131 5.57211 7.07937 5.44016C7.30743 5.30822 7.53152 5.20218 7.75166 5.12204L7.96312 3.56266C8.00798 3.28697 8.13381 3.05489 8.34062 2.86641C8.54729 2.6778 8.7927 2.5835 9.07687 2.5835H10.9231C11.2073 2.5835 11.4527 2.6778 11.6594 2.86641C11.8662 3.05489 11.992 3.28697 12.0369 3.56266L12.2404 5.12995C12.4904 5.22079 12.7166 5.32683 12.919 5.44808C13.1215 5.56933 13.3258 5.71225 13.5321 5.87683L15.0081 5.271C15.2698 5.15558 15.5328 5.14572 15.7973 5.24141C16.0617 5.33697 16.2671 5.5044 16.4133 5.7437L17.3446 7.356C17.491 7.60058 17.5331 7.8594 17.471 8.13245C17.4091 8.40537 17.267 8.63051 17.0448 8.80787L15.7644 9.76933C15.7942 9.90391 15.8105 10.0297 15.8133 10.1468C15.816 10.2638 15.8173 10.3816 15.8173 10.5002C15.8173 10.6134 15.8146 10.7285 15.8092 10.8456C15.8039 10.9625 15.7847 11.0963 15.7517 11.247L17.0079 12.1925C17.2301 12.3698 17.3736 12.595 17.4383 12.8679C17.5029 13.1409 17.462 13.3997 17.3156 13.6443L16.3717 15.2645C16.2254 15.5093 16.0187 15.6781 15.7517 15.771C15.4846 15.8639 15.2201 15.8527 14.9583 15.7372L13.5321 15.1235C13.3258 15.2881 13.1153 15.4336 12.9006 15.5602C12.6859 15.6868 12.4658 15.7902 12.2404 15.8704L12.0369 17.4377C11.992 17.7134 11.8662 17.9454 11.6594 18.1339C11.4527 18.3225 11.2073 18.4168 10.9231 18.4168H9.07687ZM9.16666 17.1668H10.8046L11.1042 14.9345C11.5294 14.8234 11.9181 14.6656 12.27 14.461C12.6221 14.2563 12.9616 13.9931 13.2885 13.6716L15.359 14.5418L16.1796 13.1252L14.3719 11.7631C14.4413 11.5472 14.4885 11.3356 14.5135 11.1283C14.5387 10.9211 14.5512 10.7117 14.5512 10.5002C14.5512 10.2832 14.5387 10.0738 14.5135 9.87204C14.4885 9.67009 14.4413 9.46384 14.3719 9.25329L16.1954 7.87516L15.375 6.4585L13.2804 7.34141C13.0015 7.04336 12.6674 6.78002 12.2781 6.55141C11.8887 6.3228 11.4947 6.16093 11.0962 6.06579L10.8333 3.8335H9.17958L8.90374 6.05787C8.47861 6.15829 8.08604 6.31211 7.72604 6.51933C7.3659 6.72669 7.02236 6.99377 6.69541 7.32058L4.625 6.4585L3.80458 7.87516L5.60416 9.21641C5.53472 9.41419 5.48611 9.61988 5.45833 9.8335C5.43055 10.0471 5.41666 10.272 5.41666 10.5081C5.41666 10.725 5.43055 10.9377 5.45833 11.146C5.48611 11.3543 5.53208 11.56 5.59625 11.7631L3.80458 13.1252L4.625 14.5418L6.6875 13.6668C7.00375 13.9916 7.34187 14.2576 7.70187 14.465C8.06201 14.6722 8.45999 14.8313 8.89583 14.9425L9.16666 17.1668ZM10.0096 13.0002C10.7029 13.0002 11.2929 12.7568 11.7796 12.2702C12.2662 11.7835 12.5096 11.1935 12.5096 10.5002C12.5096 9.80683 12.2662 9.21683 11.7796 8.73016C11.2929 8.2435 10.7029 8.00016 10.0096 8.00016C9.30763 8.00016 8.71548 8.2435 8.23312 8.73016C7.75076 9.21683 7.50958 9.80683 7.50958 10.5002C7.50958 11.1935 7.75076 11.7835 8.23312 12.2702C8.71548 12.7568 9.30763 13.0002 10.0096 13.0002Z" fill="#509EE3"/>
</g>
</svg>
