<svg width="20" height="21" viewBox="0 0 20 21" fill="none" xmlns="http://www.w3.org/2000/svg">
<mask id="mask0_2434_4148" style="mask-type:alpha" maskUnits="userSpaceOnUse" x="0" y="0" width="20" height="21">
<rect y="0.5" width="20" height="20" fill="#509EE3"/>
</mask>
<g mask="url(#mask0_2434_4148)">
<path d="M10.0014 18.4168C8.90638 18.4168 7.87714 18.2091 6.91367 17.7935C5.9502 17.3779 5.11214 16.814 4.3995 16.1016C3.68686 15.3893 3.12263 14.5516 2.70679 13.5885C2.2911 12.6254 2.08325 11.5965 2.08325 10.5016C2.08325 9.40662 2.29103 8.37738 2.70659 7.41391C3.12214 6.45044 3.6861 5.61238 4.39846 4.89975C5.11082 4.18711 5.94853 3.62287 6.91159 3.20704C7.87464 2.79134 8.9036 2.5835 9.99846 2.5835C11.0935 2.5835 12.1227 2.79127 13.0862 3.20683C14.0496 3.62238 14.8877 4.18634 15.6003 4.8987C16.313 5.61107 16.8772 6.44877 17.293 7.41183C17.7087 8.37489 17.9166 9.40384 17.9166 10.4987C17.9166 11.5937 17.7088 12.6229 17.2933 13.5864C16.8777 14.5499 16.3137 15.3879 15.6014 16.1006C14.889 16.8132 14.0513 17.3775 13.0883 17.7933C12.1252 18.209 11.0962 18.4168 10.0014 18.4168ZM10.6249 17.1283C12.3098 16.9681 13.7379 16.2638 14.9093 15.0154C16.0808 13.767 16.6666 12.262 16.6666 10.5002C16.6666 8.73836 16.0835 7.23593 14.9174 5.99287C13.7513 4.74982 12.3205 4.04287 10.6249 3.87204V17.1283Z" fill="#509EE3"/>
</g>
</svg>
