<svg width="255" height="29" viewBox="0 0 255 29" fill="none" xmlns="http://www.w3.org/2000/svg">
<path d="M1 1V28H253.928V1H1Z" fill="#E8E8E8" stroke="#E3E3E3" stroke-width="2"/>
<path fill-rule="evenodd" clip-rule="evenodd" d="M237.183 4.49625H204.327C203.363 4.49625 202.592 5.71931 202.592 7.24813C202.592 8.77695 203.363 10 204.327 10H237.183C238.146 10 238.917 8.77695 238.917 7.24813C238.917 5.71931 238.146 4.49625 237.183 4.49625Z" fill="white"/>
<path fill-rule="evenodd" clip-rule="evenodd" d="M187.268 4.49625H198.654C199.619 4.49625 200.391 5.71931 200.391 7.24813C200.391 8.77695 199.619 10 198.654 10H187.268C186.303 10 185.531 8.77695 185.531 7.24813C185.531 5.71931 186.303 4.49625 187.268 4.49625Z" fill="white"/>
</svg>
