<svg width="177" height="42" viewBox="0 0 177 42" fill="none" xmlns="http://www.w3.org/2000/svg">
<path d="M22.6667 10.5H6.33333C5.04467 10.5 4 11.5447 4 12.8333V29.1667C4 30.4553 5.04467 31.5 6.33333 31.5H22.6667C23.9553 31.5 25 30.4553 25 29.1667V12.8333C25 11.5447 23.9553 10.5 22.6667 10.5Z" stroke="#509EE3" stroke-width="3" stroke-linecap="round" stroke-linejoin="round"/>
<path d="M4 17.5H25" stroke="#509EE3" stroke-width="3" stroke-linecap="round" stroke-linejoin="round"/>
<path d="M11 31.5V17.5" stroke="#509EE3" stroke-width="3" stroke-linecap="round" stroke-linejoin="round"/>
<rect x="45.5" y="4" width="2" height="34" fill="#509EE3"/>
<path d="M67.418 34V9.415H71.312V30.535H81.938V34H67.418ZM93.457 34.396C91.741 34.396 90.168 33.989 88.738 33.175C87.33 32.361 86.208 31.25 85.372 29.842C84.536 28.434 84.118 26.839 84.118 25.057C84.118 23.253 84.536 21.658 85.372 20.272C86.208 18.864 87.33 17.764 88.738 16.972C90.146 16.158 91.719 15.751 93.457 15.751C95.217 15.751 96.79 16.158 98.176 16.972C99.584 17.764 100.695 18.864 101.509 20.272C102.345 21.658 102.763 23.253 102.763 25.057C102.763 26.861 102.345 28.467 101.509 29.875C100.673 31.283 99.551 32.394 98.143 33.208C96.735 34 95.173 34.396 93.457 34.396ZM93.457 30.931C94.513 30.931 95.448 30.678 96.262 30.172C97.076 29.666 97.714 28.973 98.176 28.093C98.66 27.191 98.902 26.179 98.902 25.057C98.902 23.935 98.66 22.934 98.176 22.054C97.714 21.174 97.076 20.481 96.262 19.975C95.448 19.469 94.513 19.216 93.457 19.216C92.423 19.216 91.488 19.469 90.652 19.975C89.838 20.481 89.189 21.174 88.705 22.054C88.243 22.934 88.012 23.935 88.012 25.057C88.012 26.179 88.243 27.191 88.705 28.093C89.189 28.973 89.838 29.666 90.652 30.172C91.488 30.678 92.423 30.931 93.457 30.931ZM114.885 34.396C113.103 34.396 111.519 33.989 110.133 33.175C108.769 32.339 107.68 31.217 106.866 29.809C106.074 28.401 105.678 26.806 105.678 25.024C105.678 23.264 106.074 21.68 106.866 20.272C107.658 18.864 108.747 17.764 110.133 16.972C111.519 16.158 113.103 15.751 114.885 15.751C116.095 15.751 117.228 15.971 118.284 16.411C119.34 16.829 120.253 17.412 121.023 18.16C121.815 18.908 122.398 19.777 122.772 20.767L119.505 22.285C119.131 21.361 118.526 20.624 117.69 20.074C116.876 19.502 115.941 19.216 114.885 19.216C113.873 19.216 112.96 19.469 112.146 19.975C111.354 20.459 110.727 21.152 110.265 22.054C109.803 22.934 109.572 23.935 109.572 25.057C109.572 26.179 109.803 27.191 110.265 28.093C110.727 28.973 111.354 29.666 112.146 30.172C112.96 30.678 113.873 30.931 114.885 30.931C115.963 30.931 116.898 30.656 117.69 30.106C118.504 29.534 119.109 28.775 119.505 27.829L122.772 29.38C122.42 30.326 121.848 31.184 121.056 31.954C120.286 32.702 119.373 33.296 118.317 33.736C117.261 34.176 116.117 34.396 114.885 34.396ZM131.601 34.396C130.391 34.396 129.324 34.187 128.4 33.769C127.498 33.329 126.794 32.735 126.288 31.987C125.782 31.217 125.529 30.315 125.529 29.281C125.529 28.313 125.738 27.444 126.156 26.674C126.596 25.904 127.267 25.255 128.169 24.727C129.071 24.199 130.204 23.825 131.568 23.605L137.772 22.582V25.519L132.294 26.476C131.304 26.652 130.578 26.971 130.116 27.433C129.654 27.873 129.423 28.445 129.423 29.149C129.423 29.831 129.676 30.392 130.182 30.832C130.71 31.25 131.381 31.459 132.195 31.459C133.207 31.459 134.087 31.239 134.835 30.799C135.605 30.359 136.199 29.776 136.617 29.05C137.035 28.302 137.244 27.477 137.244 26.575V21.988C137.244 21.108 136.914 20.393 136.254 19.843C135.616 19.271 134.758 18.985 133.68 18.985C132.69 18.985 131.821 19.249 131.073 19.777C130.347 20.283 129.808 20.943 129.456 21.757L126.354 20.206C126.684 19.326 127.223 18.556 127.971 17.896C128.719 17.214 129.588 16.686 130.578 16.312C131.59 15.938 132.657 15.751 133.779 15.751C135.187 15.751 136.43 16.015 137.508 16.543C138.608 17.071 139.455 17.808 140.049 18.754C140.665 19.678 140.973 20.756 140.973 21.988V34H137.409V30.766L138.168 30.865C137.75 31.591 137.211 32.218 136.551 32.746C135.913 33.274 135.176 33.681 134.34 33.967C133.526 34.253 132.613 34.396 131.601 34.396ZM152.733 34.198C150.863 34.198 149.411 33.67 148.377 32.614C147.343 31.558 146.826 30.073 146.826 28.159V19.513H143.691V16.147H144.186C145.022 16.147 145.671 15.905 146.133 15.421C146.595 14.937 146.826 14.277 146.826 13.441V12.055H150.555V16.147H154.614V19.513H150.555V27.994C150.555 28.61 150.654 29.138 150.852 29.578C151.05 29.996 151.369 30.326 151.809 30.568C152.249 30.788 152.821 30.898 153.525 30.898C153.701 30.898 153.899 30.887 154.119 30.865C154.339 30.843 154.548 30.821 154.746 30.799V34C154.438 34.044 154.097 34.088 153.723 34.132C153.349 34.176 153.019 34.198 152.733 34.198ZM166.445 34.396C164.663 34.396 163.079 33.989 161.693 33.175C160.329 32.339 159.262 31.217 158.492 29.809C157.722 28.379 157.337 26.784 157.337 25.024C157.337 23.22 157.722 21.625 158.492 20.239C159.284 18.853 160.34 17.764 161.66 16.972C162.98 16.158 164.476 15.751 166.148 15.751C167.49 15.751 168.689 15.982 169.745 16.444C170.801 16.906 171.692 17.544 172.418 18.358C173.144 19.15 173.694 20.063 174.068 21.097C174.464 22.131 174.662 23.231 174.662 24.397C174.662 24.683 174.651 24.98 174.629 25.288C174.607 25.596 174.563 25.882 174.497 26.146H160.274V23.176H172.385L170.603 24.529C170.823 23.451 170.746 22.494 170.372 21.658C170.02 20.8 169.47 20.129 168.722 19.645C167.996 19.139 167.138 18.886 166.148 18.886C165.158 18.886 164.278 19.139 163.508 19.645C162.738 20.129 162.144 20.833 161.726 21.757C161.308 22.659 161.143 23.759 161.231 25.057C161.121 26.267 161.286 27.323 161.726 28.225C162.188 29.127 162.826 29.831 163.64 30.337C164.476 30.843 165.422 31.096 166.478 31.096C167.556 31.096 168.469 30.854 169.217 30.37C169.987 29.886 170.592 29.259 171.032 28.489L174.068 29.974C173.716 30.81 173.166 31.569 172.418 32.251C171.692 32.911 170.812 33.439 169.778 33.835C168.766 34.209 167.655 34.396 166.445 34.396Z" fill="#509EE3"/>
</svg>

