<svg width="212" height="24" viewBox="0 0 212 24" fill="none" xmlns="http://www.w3.org/2000/svg">
<mask id="mask0_1026_7418" style="mask-type:alpha" maskUnits="userSpaceOnUse" x="0" y="0" width="24" height="24">
<rect width="24" height="24" fill="#D9D9D9"/>
</mask>
<g mask="url(#mask0_1026_7418)">
<path d="M18.827 8.84625C17.9282 8.84625 17.1496 8.56925 16.4913 8.01525C15.8329 7.46142 15.416 6.764 15.2405 5.923H8.7345C8.58967 6.63583 8.26308 7.248 7.75475 7.7595C7.24642 8.27117 6.63583 8.59942 5.923 8.74425V15.2405C6.764 15.416 7.46142 15.8329 8.01525 16.4913C8.56925 17.1496 8.84625 17.9282 8.84625 18.827C8.84625 19.8437 8.48817 20.71 7.772 21.426C7.056 22.142 6.18967 22.5 5.173 22.5C4.15633 22.5 3.29 22.142 2.574 21.426C1.858 20.71 1.5 19.8437 1.5 18.827C1.5 17.9282 1.77692 17.1496 2.33075 16.4913C2.88458 15.8329 3.582 15.416 4.423 15.2405V8.74425C3.582 8.56858 2.88458 8.15158 2.33075 7.49325C1.77692 6.83492 1.5 6.0615 1.5 5.173C1.5 4.15633 1.858 3.29 2.574 2.574C3.29 1.858 4.15317 1.5 5.1635 1.5C6.052 1.5 6.82542 1.77692 7.48375 2.33075C8.14208 2.88458 8.559 3.582 8.7345 4.423H15.2405C15.416 3.582 15.8329 2.88458 16.4913 2.33075C17.1496 1.77692 17.9282 1.5 18.827 1.5C19.8372 1.5 20.7018 1.85967 21.421 2.579C22.1403 3.29817 22.5 4.16283 22.5 5.173C22.5 6.18967 22.1403 7.056 21.421 7.772C20.7018 8.48817 19.8372 8.84625 18.827 8.84625ZM18.827 22.5C17.8103 22.5 16.944 22.142 16.228 21.426C15.5118 20.71 15.1538 19.8468 15.1538 18.8365C15.1538 17.8198 15.5118 16.9519 16.228 16.2327C16.944 15.5134 17.8103 15.1538 18.827 15.1538C19.8437 15.1538 20.71 15.5134 21.426 16.2327C22.142 16.9519 22.5 17.8198 22.5 18.8365C22.5 19.8468 22.142 20.71 21.426 21.426C20.71 22.142 19.8437 22.5 18.827 22.5Z" fill="#2F2F2F"/>
</g>
<path d="M35.296 19.5V6.09H39.67C41.086 6.09 42.316 6.378 43.36 6.954C44.416 7.518 45.232 8.304 45.808 9.312C46.384 10.308 46.672 11.466 46.672 12.786C46.672 14.094 46.384 15.258 45.808 16.278C45.232 17.286 44.416 18.078 43.36 18.654C42.316 19.218 41.086 19.5 39.67 19.5H35.296ZM37.744 17.34H39.724C40.636 17.34 41.422 17.154 42.082 16.782C42.754 16.398 43.276 15.87 43.648 15.198C44.02 14.514 44.206 13.71 44.206 12.786C44.206 11.85 44.02 11.046 43.648 10.374C43.276 9.702 42.754 9.18 42.082 8.808C41.422 8.436 40.636 8.25 39.724 8.25H37.744V17.34ZM49.6102 23.478C49.3462 23.478 49.0882 23.454 48.8362 23.406C48.5842 23.37 48.3562 23.304 48.1522 23.208V21.228C48.3082 21.264 48.4942 21.3 48.7102 21.336C48.9382 21.372 49.1482 21.39 49.3402 21.39C49.8802 21.39 50.2702 21.264 50.5102 21.012C50.7622 20.76 50.9842 20.43 51.1762 20.022L51.8242 18.51L51.7882 20.49L47.5222 9.708H50.0602L53.0482 17.664H52.1482L55.1182 9.708H57.6742L53.4082 20.49C53.1562 21.126 52.8502 21.666 52.4902 22.11C52.1302 22.554 51.7102 22.89 51.2302 23.118C50.7622 23.358 50.2222 23.478 49.6102 23.478ZM58.9691 19.5V9.708H61.1831V11.634L61.0031 11.292C61.2311 10.704 61.6031 10.26 62.1191 9.96C62.6471 9.648 63.2591 9.492 63.9551 9.492C64.6751 9.492 65.3111 9.648 65.8631 9.96C66.4271 10.272 66.8651 10.71 67.1771 11.274C67.4891 11.826 67.6451 12.468 67.6451 13.2V19.5H65.2871V13.758C65.2871 13.326 65.2031 12.954 65.0351 12.642C64.8671 12.33 64.6331 12.09 64.3331 11.922C64.0451 11.742 63.7031 11.652 63.3071 11.652C62.9231 11.652 62.5811 11.742 62.2811 11.922C61.9811 12.09 61.7471 12.33 61.5791 12.642C61.4111 12.954 61.3271 13.326 61.3271 13.758V19.5H58.9691ZM72.609 19.716C71.925 19.716 71.331 19.602 70.827 19.374C70.323 19.146 69.933 18.822 69.657 18.402C69.381 17.97 69.243 17.472 69.243 16.908C69.243 16.368 69.363 15.888 69.603 15.468C69.843 15.036 70.215 14.676 70.719 14.388C71.223 14.1 71.859 13.896 72.627 13.776L75.831 13.254V15.054L73.077 15.522C72.609 15.606 72.261 15.756 72.033 15.972C71.805 16.188 71.691 16.47 71.691 16.818C71.691 17.154 71.817 17.424 72.069 17.628C72.333 17.82 72.657 17.916 73.041 17.916C73.533 17.916 73.965 17.814 74.337 17.61C74.721 17.394 75.015 17.1 75.219 16.728C75.435 16.356 75.543 15.948 75.543 15.504V12.984C75.543 12.564 75.375 12.216 75.039 11.94C74.715 11.652 74.283 11.508 73.743 11.508C73.239 11.508 72.789 11.646 72.393 11.922C72.009 12.186 71.727 12.54 71.547 12.984L69.621 12.048C69.813 11.532 70.113 11.088 70.521 10.716C70.941 10.332 71.433 10.032 71.997 9.816C72.561 9.6 73.173 9.492 73.833 9.492C74.637 9.492 75.345 9.642 75.957 9.942C76.569 10.23 77.043 10.638 77.379 11.166C77.727 11.682 77.901 12.288 77.901 12.984V19.5H75.669V17.826L76.173 17.79C75.921 18.21 75.621 18.564 75.273 18.852C74.925 19.128 74.529 19.344 74.085 19.5C73.641 19.644 73.149 19.716 72.609 19.716ZM80.0804 19.5V9.708H82.2944V11.976L82.0424 11.598C82.2224 10.89 82.5824 10.362 83.1224 10.014C83.6624 9.666 84.2984 9.492 85.0304 9.492C85.8344 9.492 86.5424 9.702 87.1544 10.122C87.7664 10.542 88.1624 11.094 88.3424 11.778L87.6764 11.832C87.9764 11.052 88.4264 10.47 89.0264 10.086C89.6264 9.69 90.3164 9.492 91.0964 9.492C91.7924 9.492 92.4104 9.648 92.9504 9.96C93.5024 10.272 93.9344 10.71 94.2464 11.274C94.5584 11.826 94.7144 12.468 94.7144 13.2V19.5H92.3564V13.758C92.3564 13.326 92.2784 12.954 92.1224 12.642C91.9664 12.33 91.7504 12.09 91.4744 11.922C91.1984 11.742 90.8624 11.652 90.4664 11.652C90.0944 11.652 89.7644 11.742 89.4764 11.922C89.1884 12.09 88.9664 12.33 88.8104 12.642C88.6544 12.954 88.5764 13.326 88.5764 13.758V19.5H86.2184V13.758C86.2184 13.326 86.1404 12.954 85.9844 12.642C85.8284 12.33 85.6064 12.09 85.3184 11.922C85.0424 11.742 84.7124 11.652 84.3284 11.652C83.9564 11.652 83.6264 11.742 83.3384 11.922C83.0504 12.09 82.8284 12.33 82.6724 12.642C82.5164 12.954 82.4384 13.326 82.4384 13.758V19.5H80.0804ZM96.7093 19.5V9.708H99.0673V19.5H96.7093ZM96.7093 8.61V6.09H99.0673V8.61H96.7093ZM105.96 19.716C104.988 19.716 104.112 19.494 103.332 19.05C102.564 18.594 101.958 17.982 101.514 17.214C101.07 16.434 100.848 15.558 100.848 14.586C100.848 13.614 101.07 12.744 101.514 11.976C101.958 11.208 102.564 10.602 103.332 10.158C104.112 9.714 104.988 9.492 105.96 9.492C106.656 9.492 107.304 9.618 107.904 9.87C108.504 10.11 109.02 10.446 109.452 10.878C109.896 11.298 110.214 11.802 110.406 12.39L108.336 13.29C108.156 12.798 107.85 12.402 107.418 12.102C106.998 11.802 106.512 11.652 105.96 11.652C105.444 11.652 104.982 11.778 104.574 12.03C104.178 12.282 103.866 12.63 103.638 13.074C103.41 13.518 103.296 14.028 103.296 14.604C103.296 15.18 103.41 15.69 103.638 16.134C103.866 16.578 104.178 16.926 104.574 17.178C104.982 17.43 105.444 17.556 105.96 17.556C106.524 17.556 107.016 17.406 107.436 17.106C107.856 16.806 108.156 16.404 108.336 15.9L110.406 16.836C110.214 17.388 109.902 17.886 109.47 18.33C109.038 18.762 108.522 19.104 107.922 19.356C107.322 19.596 106.668 19.716 105.96 19.716ZM115.593 19.5V6.09H119.967C121.383 6.09 122.613 6.378 123.657 6.954C124.713 7.518 125.529 8.304 126.105 9.312C126.681 10.308 126.969 11.466 126.969 12.786C126.969 14.094 126.681 15.258 126.105 16.278C125.529 17.286 124.713 18.078 123.657 18.654C122.613 19.218 121.383 19.5 119.967 19.5H115.593ZM118.041 17.34H120.021C120.933 17.34 121.719 17.154 122.379 16.782C123.051 16.398 123.573 15.87 123.945 15.198C124.317 14.514 124.503 13.71 124.503 12.786C124.503 11.85 124.317 11.046 123.945 10.374C123.573 9.702 123.051 9.18 122.379 8.808C121.719 8.436 120.933 8.25 120.021 8.25H118.041V17.34ZM131.654 19.716C130.97 19.716 130.376 19.602 129.872 19.374C129.368 19.146 128.978 18.822 128.702 18.402C128.426 17.97 128.288 17.472 128.288 16.908C128.288 16.368 128.408 15.888 128.648 15.468C128.888 15.036 129.26 14.676 129.764 14.388C130.268 14.1 130.904 13.896 131.672 13.776L134.876 13.254V15.054L132.122 15.522C131.654 15.606 131.306 15.756 131.078 15.972C130.85 16.188 130.736 16.47 130.736 16.818C130.736 17.154 130.862 17.424 131.114 17.628C131.378 17.82 131.702 17.916 132.086 17.916C132.578 17.916 133.01 17.814 133.382 17.61C133.766 17.394 134.06 17.1 134.264 16.728C134.48 16.356 134.588 15.948 134.588 15.504V12.984C134.588 12.564 134.42 12.216 134.084 11.94C133.76 11.652 133.328 11.508 132.788 11.508C132.284 11.508 131.834 11.646 131.438 11.922C131.054 12.186 130.772 12.54 130.592 12.984L128.666 12.048C128.858 11.532 129.158 11.088 129.566 10.716C129.986 10.332 130.478 10.032 131.042 9.816C131.606 9.6 132.218 9.492 132.878 9.492C133.682 9.492 134.39 9.642 135.002 9.942C135.614 10.23 136.088 10.638 136.424 11.166C136.772 11.682 136.946 12.288 136.946 12.984V19.5H134.714V17.826L135.218 17.79C134.966 18.21 134.666 18.564 134.318 18.852C133.97 19.128 133.574 19.344 133.13 19.5C132.686 19.644 132.194 19.716 131.654 19.716ZM142.851 19.716C141.807 19.716 140.895 19.47 140.115 18.978C139.347 18.474 138.819 17.796 138.531 16.944L140.295 16.098C140.547 16.65 140.895 17.082 141.339 17.394C141.795 17.706 142.299 17.862 142.851 17.862C143.283 17.862 143.625 17.766 143.877 17.574C144.129 17.382 144.255 17.13 144.255 16.818C144.255 16.626 144.201 16.47 144.093 16.35C143.997 16.218 143.859 16.11 143.679 16.026C143.511 15.93 143.325 15.852 143.121 15.792L141.519 15.342C140.691 15.102 140.061 14.736 139.629 14.244C139.209 13.752 138.999 13.17 138.999 12.498C138.999 11.898 139.149 11.376 139.449 10.932C139.761 10.476 140.187 10.122 140.727 9.87C141.279 9.618 141.909 9.492 142.617 9.492C143.541 9.492 144.357 9.714 145.065 10.158C145.773 10.602 146.277 11.226 146.577 12.03L144.777 12.876C144.609 12.432 144.327 12.078 143.931 11.814C143.535 11.55 143.091 11.418 142.599 11.418C142.203 11.418 141.891 11.508 141.663 11.688C141.435 11.868 141.321 12.102 141.321 12.39C141.321 12.57 141.369 12.726 141.465 12.858C141.561 12.99 141.693 13.098 141.861 13.182C142.041 13.266 142.245 13.344 142.473 13.416L144.039 13.884C144.843 14.124 145.461 14.484 145.893 14.964C146.337 15.444 146.559 16.032 146.559 16.728C146.559 17.316 146.403 17.838 146.091 18.294C145.779 18.738 145.347 19.086 144.795 19.338C144.243 19.59 143.595 19.716 142.851 19.716ZM148.371 19.5V5.874H150.729V11.634L150.405 11.292C150.633 10.704 151.005 10.26 151.521 9.96C152.049 9.648 152.661 9.492 153.357 9.492C154.077 9.492 154.713 9.648 155.265 9.96C155.829 10.272 156.267 10.71 156.579 11.274C156.891 11.826 157.047 12.468 157.047 13.2V19.5H154.689V13.758C154.689 13.326 154.605 12.954 154.437 12.642C154.269 12.33 154.035 12.09 153.735 11.922C153.447 11.742 153.105 11.652 152.709 11.652C152.325 11.652 151.983 11.742 151.683 11.922C151.383 12.09 151.149 12.33 150.981 12.642C150.813 12.954 150.729 13.326 150.729 13.758V19.5H148.371ZM164.387 19.716C163.679 19.716 163.025 19.578 162.425 19.302C161.837 19.014 161.369 18.606 161.021 18.078L161.255 17.61V19.5H159.041V5.874H161.399V11.652L161.039 11.166C161.375 10.638 161.831 10.23 162.407 9.942C162.983 9.642 163.649 9.492 164.405 9.492C165.329 9.492 166.163 9.72 166.907 10.176C167.651 10.632 168.239 11.244 168.671 12.012C169.115 12.78 169.337 13.644 169.337 14.604C169.337 15.552 169.121 16.416 168.689 17.196C168.257 17.976 167.669 18.594 166.925 19.05C166.181 19.494 165.335 19.716 164.387 19.716ZM164.117 17.556C164.657 17.556 165.137 17.43 165.557 17.178C165.977 16.926 166.301 16.578 166.529 16.134C166.769 15.69 166.889 15.18 166.889 14.604C166.889 14.028 166.769 13.524 166.529 13.092C166.301 12.648 165.977 12.3 165.557 12.048C165.137 11.784 164.657 11.652 164.117 11.652C163.601 11.652 163.133 11.778 162.713 12.03C162.305 12.282 161.981 12.636 161.741 13.092C161.513 13.536 161.399 14.04 161.399 14.604C161.399 15.18 161.513 15.69 161.741 16.134C161.981 16.578 162.305 16.926 162.713 17.178C163.133 17.43 163.601 17.556 164.117 17.556ZM175.923 19.716C174.963 19.716 174.087 19.494 173.295 19.05C172.515 18.606 171.891 18 171.423 17.232C170.967 16.464 170.739 15.588 170.739 14.604C170.739 13.62 170.967 12.744 171.423 11.976C171.891 11.208 172.515 10.602 173.295 10.158C174.075 9.714 174.951 9.492 175.923 9.492C176.883 9.492 177.753 9.714 178.533 10.158C179.313 10.602 179.931 11.208 180.387 11.976C180.855 12.732 181.089 13.608 181.089 14.604C181.089 15.588 180.855 16.464 180.387 17.232C179.919 18 179.295 18.606 178.515 19.05C177.735 19.494 176.871 19.716 175.923 19.716ZM175.923 17.556C176.451 17.556 176.913 17.43 177.309 17.178C177.717 16.926 178.035 16.578 178.263 16.134C178.503 15.678 178.623 15.168 178.623 14.604C178.623 14.028 178.503 13.524 178.263 13.092C178.035 12.648 177.717 12.3 177.309 12.048C176.913 11.784 176.451 11.652 175.923 11.652C175.383 11.652 174.909 11.784 174.501 12.048C174.093 12.3 173.769 12.648 173.529 13.092C173.301 13.524 173.187 14.028 173.187 14.604C173.187 15.168 173.301 15.678 173.529 16.134C173.769 16.578 174.093 16.926 174.501 17.178C174.909 17.43 175.383 17.556 175.923 17.556ZM185.847 19.716C185.163 19.716 184.569 19.602 184.065 19.374C183.561 19.146 183.171 18.822 182.895 18.402C182.619 17.97 182.481 17.472 182.481 16.908C182.481 16.368 182.601 15.888 182.841 15.468C183.081 15.036 183.453 14.676 183.957 14.388C184.461 14.1 185.097 13.896 185.865 13.776L189.069 13.254V15.054L186.315 15.522C185.847 15.606 185.499 15.756 185.271 15.972C185.043 16.188 184.929 16.47 184.929 16.818C184.929 17.154 185.055 17.424 185.307 17.628C185.571 17.82 185.895 17.916 186.279 17.916C186.771 17.916 187.203 17.814 187.575 17.61C187.959 17.394 188.253 17.1 188.457 16.728C188.673 16.356 188.781 15.948 188.781 15.504V12.984C188.781 12.564 188.613 12.216 188.277 11.94C187.953 11.652 187.521 11.508 186.981 11.508C186.477 11.508 186.027 11.646 185.631 11.922C185.247 12.186 184.965 12.54 184.785 12.984L182.859 12.048C183.051 11.532 183.351 11.088 183.759 10.716C184.179 10.332 184.671 10.032 185.235 9.816C185.799 9.6 186.411 9.492 187.071 9.492C187.875 9.492 188.583 9.642 189.195 9.942C189.807 10.23 190.281 10.638 190.617 11.166C190.965 11.682 191.139 12.288 191.139 12.984V19.5H188.907V17.826L189.411 17.79C189.159 18.21 188.859 18.564 188.511 18.852C188.163 19.128 187.767 19.344 187.323 19.5C186.879 19.644 186.387 19.716 185.847 19.716ZM193.319 19.5V9.708H195.533V11.886L195.353 11.562C195.581 10.83 195.935 10.32 196.415 10.032C196.907 9.744 197.495 9.6 198.179 9.6H198.755V11.688H197.909C197.237 11.688 196.697 11.898 196.289 12.318C195.881 12.726 195.677 13.302 195.677 14.046V19.5H193.319ZM204.605 19.716C203.657 19.716 202.811 19.494 202.067 19.05C201.323 18.594 200.735 17.976 200.303 17.196C199.871 16.416 199.655 15.552 199.655 14.604C199.655 13.644 199.871 12.78 200.303 12.012C200.735 11.244 201.323 10.632 202.067 10.176C202.823 9.72 203.663 9.492 204.587 9.492C205.331 9.492 205.991 9.642 206.567 9.942C207.155 10.23 207.617 10.638 207.953 11.166L207.593 11.652V5.874H209.951V19.5H207.719V17.61L207.971 18.078C207.635 18.606 207.167 19.014 206.567 19.302C205.967 19.578 205.313 19.716 204.605 19.716ZM204.857 17.556C205.397 17.556 205.871 17.43 206.279 17.178C206.687 16.926 207.005 16.578 207.233 16.134C207.473 15.69 207.593 15.18 207.593 14.604C207.593 14.04 207.473 13.536 207.233 13.092C207.005 12.636 206.687 12.282 206.279 12.03C205.871 11.778 205.397 11.652 204.857 11.652C204.329 11.652 203.855 11.784 203.435 12.048C203.015 12.3 202.685 12.648 202.445 13.092C202.217 13.524 202.103 14.028 202.103 14.604C202.103 15.18 202.217 15.69 202.445 16.134C202.685 16.578 203.015 16.926 203.435 17.178C203.855 17.43 204.329 17.556 204.857 17.556Z" fill="#2F2F2F"/>
</svg>
