<svg width="237" height="42" viewBox="0 0 237 42" fill="none" xmlns="http://www.w3.org/2000/svg">
<path d="M22.6667 10.5H6.33333C5.04467 10.5 4 11.5447 4 12.8333V29.1667C4 30.4553 5.04467 31.5 6.33333 31.5H22.6667C23.9553 31.5 25 30.4553 25 29.1667V12.8333C25 11.5447 23.9553 10.5 22.6667 10.5Z" stroke="#509EE3" stroke-width="3" stroke-linecap="round" stroke-linejoin="round"/>
<path d="M4 17.5H25" stroke="#509EE3" stroke-width="3" stroke-linecap="round" stroke-linejoin="round"/>
<path d="M11 31.5V17.5" stroke="#509EE3" stroke-width="3" stroke-linecap="round" stroke-linejoin="round"/>
<rect x="45.5" y="4" width="2" height="34" fill="#509EE3"/>
<path d="M71.771 34V12.88H65.237V9.415H82.067V12.88H75.632V34H71.771ZM90.6772 34.396C88.8952 34.396 87.3112 33.989 85.9252 33.175C84.5612 32.339 83.4942 31.217 82.7242 29.809C81.9542 28.379 81.5692 26.784 81.5692 25.024C81.5692 23.22 81.9542 21.625 82.7242 20.239C83.5162 18.853 84.5722 17.764 85.8922 16.972C87.2122 16.158 88.7082 15.751 90.3802 15.751C91.7222 15.751 92.9212 15.982 93.9772 16.444C95.0332 16.906 95.9242 17.544 96.6502 18.358C97.3762 19.15 97.9262 20.063 98.3002 21.097C98.6962 22.131 98.8942 23.231 98.8942 24.397C98.8942 24.683 98.8832 24.98 98.8612 25.288C98.8392 25.596 98.7952 25.882 98.7292 26.146H84.5062V23.176H96.6172L94.8352 24.529C95.0552 23.451 94.9782 22.494 94.6042 21.658C94.2522 20.8 93.7022 20.129 92.9542 19.645C92.2282 19.139 91.3702 18.886 90.3802 18.886C89.3902 18.886 88.5102 19.139 87.7402 19.645C86.9702 20.129 86.3762 20.833 85.9582 21.757C85.5402 22.659 85.3752 23.759 85.4632 25.057C85.3532 26.267 85.5182 27.323 85.9582 28.225C86.4202 29.127 87.0582 29.831 87.8722 30.337C88.7082 30.843 89.6542 31.096 90.7102 31.096C91.7882 31.096 92.7012 30.854 93.4492 30.37C94.2192 29.886 94.8242 29.259 95.2642 28.489L98.3002 29.974C97.9482 30.81 97.3982 31.569 96.6502 32.251C95.9242 32.911 95.0442 33.439 94.0102 33.835C92.9982 34.209 91.8872 34.396 90.6772 34.396ZM102.533 34V9.019H106.262V34H102.533ZM119.004 34.396C117.222 34.396 115.638 33.989 114.252 33.175C112.888 32.339 111.821 31.217 111.051 29.809C110.281 28.379 109.896 26.784 109.896 25.024C109.896 23.22 110.281 21.625 111.051 20.239C111.843 18.853 112.899 17.764 114.219 16.972C115.539 16.158 117.035 15.751 118.707 15.751C120.049 15.751 121.248 15.982 122.304 16.444C123.36 16.906 124.251 17.544 124.977 18.358C125.703 19.15 126.253 20.063 126.627 21.097C127.023 22.131 127.221 23.231 127.221 24.397C127.221 24.683 127.21 24.98 127.188 25.288C127.166 25.596 127.122 25.882 127.056 26.146H112.833V23.176H124.944L123.162 24.529C123.382 23.451 123.305 22.494 122.931 21.658C122.579 20.8 122.029 20.129 121.281 19.645C120.555 19.139 119.697 18.886 118.707 18.886C117.717 18.886 116.837 19.139 116.067 19.645C115.297 20.129 114.703 20.833 114.285 21.757C113.867 22.659 113.702 23.759 113.79 25.057C113.68 26.267 113.845 27.323 114.285 28.225C114.747 29.127 115.385 29.831 116.199 30.337C117.035 30.843 117.981 31.096 119.037 31.096C120.115 31.096 121.028 30.854 121.776 30.37C122.546 29.886 123.151 29.259 123.591 28.489L126.627 29.974C126.275 30.81 125.725 31.569 124.977 32.251C124.251 32.911 123.371 33.439 122.337 33.835C121.325 34.209 120.214 34.396 119.004 34.396ZM130.861 34V16.147H134.425V20.008L133.963 19.414C134.337 18.204 135.019 17.291 136.009 16.675C136.999 16.059 138.132 15.751 139.408 15.751C140.838 15.751 142.103 16.136 143.203 16.906C144.325 17.654 145.073 18.655 145.447 19.909L144.391 20.008C144.919 18.578 145.722 17.511 146.8 16.807C147.9 16.103 149.154 15.751 150.562 15.751C151.794 15.751 152.905 16.037 153.895 16.609C154.907 17.181 155.71 17.973 156.304 18.985C156.898 19.997 157.195 21.152 157.195 22.45V34H153.466V23.473C153.466 22.571 153.301 21.812 152.971 21.196C152.663 20.558 152.223 20.074 151.651 19.744C151.101 19.392 150.452 19.216 149.704 19.216C148.956 19.216 148.296 19.392 147.724 19.744C147.152 20.074 146.701 20.558 146.371 21.196C146.041 21.834 145.876 22.593 145.876 23.473V34H142.18V23.473C142.18 22.571 142.015 21.812 141.685 21.196C141.377 20.558 140.937 20.074 140.365 19.744C139.815 19.392 139.155 19.216 138.385 19.216C137.637 19.216 136.977 19.392 136.405 19.744C135.833 20.074 135.382 20.558 135.052 21.196C134.744 21.834 134.59 22.593 134.59 23.473V34H130.861ZM166.532 34.396C165.322 34.396 164.255 34.187 163.331 33.769C162.429 33.329 161.725 32.735 161.219 31.987C160.713 31.217 160.46 30.315 160.46 29.281C160.46 28.313 160.669 27.444 161.087 26.674C161.527 25.904 162.198 25.255 163.1 24.727C164.002 24.199 165.135 23.825 166.499 23.605L172.703 22.582V25.519L167.225 26.476C166.235 26.652 165.509 26.971 165.047 27.433C164.585 27.873 164.354 28.445 164.354 29.149C164.354 29.831 164.607 30.392 165.113 30.832C165.641 31.25 166.312 31.459 167.126 31.459C168.138 31.459 169.018 31.239 169.766 30.799C170.536 30.359 171.13 29.776 171.548 29.05C171.966 28.302 172.175 27.477 172.175 26.575V21.988C172.175 21.108 171.845 20.393 171.185 19.843C170.547 19.271 169.689 18.985 168.611 18.985C167.621 18.985 166.752 19.249 166.004 19.777C165.278 20.283 164.739 20.943 164.387 21.757L161.285 20.206C161.615 19.326 162.154 18.556 162.902 17.896C163.65 17.214 164.519 16.686 165.509 16.312C166.521 15.938 167.588 15.751 168.71 15.751C170.118 15.751 171.361 16.015 172.439 16.543C173.539 17.071 174.386 17.808 174.98 18.754C175.596 19.678 175.904 20.756 175.904 21.988V34H172.34V30.766L173.099 30.865C172.681 31.591 172.142 32.218 171.482 32.746C170.844 33.274 170.107 33.681 169.271 33.967C168.457 34.253 167.544 34.396 166.532 34.396ZM187.664 34.198C185.794 34.198 184.342 33.67 183.308 32.614C182.274 31.558 181.757 30.073 181.757 28.159V19.513H178.622V16.147H179.117C179.953 16.147 180.602 15.905 181.064 15.421C181.526 14.937 181.757 14.277 181.757 13.441V12.055H185.486V16.147H189.545V19.513H185.486V27.994C185.486 28.61 185.585 29.138 185.783 29.578C185.981 29.996 186.3 30.326 186.74 30.568C187.18 30.788 187.752 30.898 188.456 30.898C188.632 30.898 188.83 30.887 189.05 30.865C189.27 30.843 189.479 30.821 189.677 30.799V34C189.369 34.044 189.028 34.088 188.654 34.132C188.28 34.176 187.95 34.198 187.664 34.198ZM193.316 34V16.147H197.045V34H193.316ZM193.316 13.705V9.415H197.045V13.705H193.316ZM209.886 34.396C208.104 34.396 206.52 33.989 205.134 33.175C203.77 32.339 202.681 31.217 201.867 29.809C201.075 28.401 200.679 26.806 200.679 25.024C200.679 23.264 201.075 21.68 201.867 20.272C202.659 18.864 203.748 17.764 205.134 16.972C206.52 16.158 208.104 15.751 209.886 15.751C211.096 15.751 212.229 15.971 213.285 16.411C214.341 16.829 215.254 17.412 216.024 18.16C216.816 18.908 217.399 19.777 217.773 20.767L214.506 22.285C214.132 21.361 213.527 20.624 212.691 20.074C211.877 19.502 210.942 19.216 209.886 19.216C208.874 19.216 207.961 19.469 207.147 19.975C206.355 20.459 205.728 21.152 205.266 22.054C204.804 22.934 204.573 23.935 204.573 25.057C204.573 26.179 204.804 27.191 205.266 28.093C205.728 28.973 206.355 29.666 207.147 30.172C207.961 30.678 208.874 30.931 209.886 30.931C210.964 30.931 211.899 30.656 212.691 30.106C213.505 29.534 214.11 28.775 214.506 27.829L217.773 29.38C217.421 30.326 216.849 31.184 216.057 31.954C215.287 32.702 214.374 33.296 213.318 33.736C212.262 34.176 211.118 34.396 209.886 34.396ZM228.017 34.396C226.191 34.396 224.585 33.945 223.199 33.043C221.835 32.141 220.878 30.931 220.328 29.413L223.199 28.06C223.683 29.072 224.343 29.875 225.179 30.469C226.037 31.063 226.983 31.36 228.017 31.36C228.897 31.36 229.612 31.162 230.162 30.766C230.712 30.37 230.987 29.831 230.987 29.149C230.987 28.709 230.866 28.357 230.624 28.093C230.382 27.807 230.074 27.576 229.7 27.4C229.348 27.224 228.985 27.092 228.611 27.004L225.806 26.212C224.266 25.772 223.111 25.112 222.341 24.232C221.593 23.33 221.219 22.285 221.219 21.097C221.219 20.019 221.494 19.084 222.044 18.292C222.594 17.478 223.353 16.851 224.321 16.411C225.289 15.971 226.378 15.751 227.588 15.751C229.216 15.751 230.668 16.158 231.944 16.972C233.22 17.764 234.122 18.875 234.65 20.305L231.779 21.658C231.427 20.8 230.866 20.118 230.096 19.612C229.348 19.106 228.501 18.853 227.555 18.853C226.741 18.853 226.092 19.051 225.608 19.447C225.124 19.821 224.882 20.316 224.882 20.932C224.882 21.35 224.992 21.702 225.212 21.988C225.432 22.252 225.718 22.472 226.07 22.648C226.422 22.802 226.785 22.934 227.159 23.044L230.063 23.902C231.537 24.32 232.67 24.98 233.462 25.882C234.254 26.762 234.65 27.818 234.65 29.05C234.65 30.106 234.364 31.041 233.792 31.855C233.242 32.647 232.472 33.274 231.482 33.736C230.492 34.176 229.337 34.396 228.017 34.396Z" fill="#509EE3"/>
</svg>
