<svg width="32" height="32" viewBox="0 0 32 32" fill="none" xmlns="http://www.w3.org/2000/svg">
<mask id="mask0_1168_2301" style="mask-type:alpha" maskUnits="userSpaceOnUse" x="0" y="0" width="32" height="32">
<rect width="32" height="32" fill="#D9D9D9"/>
</mask>
<g mask="url(#mask0_1168_2301)">
<path d="M25.1027 11.795C23.9042 11.795 22.8661 11.4257 21.9883 10.687C21.1106 9.94856 20.5547 9.01867 20.3207 7.89733H11.646C11.4529 8.84778 11.0174 9.664 10.3397 10.346C9.66189 11.0282 8.84778 11.4659 7.89733 11.659V20.3207C9.01867 20.5547 9.94856 21.1106 10.687 21.9883C11.4257 22.8661 11.795 23.9042 11.795 25.1027C11.795 26.4582 11.3176 27.6133 10.3627 28.568C9.408 29.5227 8.25289 30 6.89733 30C5.54178 30 4.38667 29.5227 3.432 28.568C2.47733 27.6133 2 26.4582 2 25.1027C2 23.9042 2.36922 22.8661 3.10767 21.9883C3.84611 21.1106 4.776 20.5547 5.89733 20.3207V11.659C4.776 11.4248 3.84611 10.8688 3.10767 9.991C2.36922 9.11322 2 8.082 2 6.89733C2 5.54178 2.47733 4.38667 3.432 3.432C4.38667 2.47733 5.53756 2 6.88467 2C8.06933 2 9.10056 2.36922 9.97833 3.10767C10.8561 3.84611 11.412 4.776 11.646 5.89733H20.3207C20.5547 4.776 21.1106 3.84611 21.9883 3.10767C22.8661 2.36922 23.9042 2 25.1027 2C26.4496 2 27.6024 2.47955 28.5613 3.43867C29.5204 4.39755 30 5.55044 30 6.89733C30 8.25289 29.5204 9.408 28.5613 10.3627C27.6024 11.3176 26.4496 11.795 25.1027 11.795ZM25.1027 30C23.7471 30 22.592 29.5227 21.6373 28.568C20.6824 27.6133 20.205 26.4624 20.205 25.1153C20.205 23.7598 20.6824 22.6026 21.6373 21.6437C22.592 20.6846 23.7471 20.205 25.1027 20.205C26.4582 20.205 27.6133 20.6846 28.568 21.6437C29.5227 22.6026 30 23.7598 30 25.1153C30 26.4624 29.5227 27.6133 28.568 28.568C27.6133 29.5227 26.4582 30 25.1027 30Z" fill="#4CA9A6"/>
</g>
</svg>
