<svg width="24" height="24" viewBox="0 0 24 24" fill="none" xmlns="http://www.w3.org/2000/svg">
<path d="M20.5 14.75V3.75C20.5 3.02065 20.2103 2.32118 19.6945 1.80546C19.1788 1.28973 18.4793 1 17.75 1L14.0833 1V1.91667C14.0833 2.4029 13.8902 2.86921 13.5464 3.21303C13.2025 3.55685 12.7362 3.75 12.25 3.75C11.7638 3.75 11.2975 3.55685 10.9536 3.21303C10.6098 2.86921 10.4167 2.4029 10.4167 1.91667V1H6.75C6.02065 1 5.32118 1.28973 4.80546 1.80546C4.28973 2.32118 4 3.02065 4 3.75V14.75H7.66667V16.5833H4V23H10.4167V22.0833C10.4167 21.5971 10.6098 21.1308 10.9536 20.787C11.2975 20.4432 11.7638 20.25 12.25 20.25C12.7362 20.25 13.2025 20.4432 13.5464 20.787C13.8902 21.1308 14.0833 21.5971 14.0833 22.0833V23H20.5V16.5833H16.8333V14.75H20.5ZM14.0833 16.5833H10.4167V14.75H14.0833V16.5833Z" fill="#2F2F2F"/>
</svg>
